# xmcd
#
# Track frame offsets:
#	150
#	14438
#	27572
#	47065
#	59369
#	72039
#	86904
#	97625
#	111273
#	124187
#	135884
#	147702
#	160495
#	176090
#	187035
#	200562
#	213724
#	227496
#	239683
#	252357
#
# Disc length: 3534 seconds
#
# Revision: 0
# Processed by: cddbd v1.5.2PL0 Copyright (c) Steve Scherf et al.
# Submitted via: EZCDAudioConverter 2.3.5.1
#
DISCID=2d0dcc14
DTITLE=금잔디 - 트롯트 금잔디 5
DYEAR=2013
DGENRE=Trot
TTITLE0=오라버니
TTITLE1=나쁜 사람 이야
TTITLE2=꽃물
TTITLE3=미워도 미워도
TTITLE4=아따 고것참
TTITLE5=돌리도
TTITLE6=사랑은 눈물이라 말하지
TTITLE7=연하의 남자
TTITLE8=보고 싶다 사랑아
TTITLE9=님이 좋아
TTITLE10=보디 가드
TTITLE11=왔구나 왔어
TTITLE12=여백
TTITLE13=이봐요
TTITLE14=찰랑찰랑
TTITLE15=유리구두
TTITLE16=당돌한 여자
TTITLE17=자기야
TTITLE18=당신은 바보야
TTITLE19=해바라기 꽃
EXTD=
EXTT0=
EXTT1=
EXTT2=
EXTT3=
EXTT4=
EXTT5=
EXTT6=
EXTT7=
EXTT8=
EXTT9=
EXTT10=
EXTT11=
EXTT12=
EXTT13=
EXTT14=
EXTT15=
EXTT16=
EXTT17=
EXTT18=
EXTT19=
PLAYORDER=
